<svg xmlns="http://www.w3.org/2000/svg" version="1.1" xmlns:xlink="http://www.w3.org/1999/xlink" xmlns:svgjs="http://svgjs.com/svgjs" width="512" height="512" x="0" y="0" viewBox="0 0 450 450" style="enable-background:new 0 0 512 512" xml:space="preserve" class=""><g><path d="M293.9 331.4c-2.8 0-5-2.2-5-5 0-33.5 12.4-65.8 35-91 22.2-24.8 34.4-56.2 34.2-88.2C357.6 74.8 298.3 15.5 226 15c-35.8-.3-69.4 13.5-94.7 38.6S91.9 112.3 91.9 148c0 31.6 12.1 62.6 34 87.1 22.7 25.4 35.1 57.8 35.1 91.2 0 2.8-2.2 5-5 5s-5-2.2-5-5c0-30.9-11.6-60.9-32.6-84.5-23.6-26.4-36.6-59.7-36.6-93.8 0-38.4 15-74.5 42.3-101.5C151.2 19.7 187 5 225 5h1.1c77.8.6 141.5 64.3 142 142.1.2 34.5-12.8 68.2-36.7 94.9-20.9 23.4-32.4 53.3-32.4 84.3-.1 2.8-2.4 5.1-5.1 5.1z" fill="#fcf8f8" data-original="#000000"></path><path d="M293.9 366.8H156.1c-12.5 0-22.7-10.2-22.7-22.7s10.2-22.7 22.7-22.7h137.8c12.5 0 22.7 10.2 22.7 22.7s-10.2 22.7-22.7 22.7zm-137.8-35.4c-7 0-12.7 5.7-12.7 12.7s5.7 12.7 12.7 12.7h137.8c7 0 12.7-5.7 12.7-12.7s-5.7-12.7-12.7-12.7z" fill="#fcf8f8" data-original="#000000"></path><path d="M293.9 402.3H156.1c-12.5 0-22.7-10.2-22.7-22.7s10.2-22.7 22.7-22.7c2.8 0 5 2.2 5 5s-2.2 5-5 5c-7 0-12.7 5.7-12.7 12.7s5.7 12.7 12.7 12.7h137.8c7 0 12.7-5.7 12.7-12.7s-5.7-12.7-12.7-12.7c-2.8 0-5-2.2-5-5s2.2-5 5-5c12.5 0 22.7 10.2 22.7 22.7s-10.2 22.7-22.7 22.7z" fill="#fcf8f8" data-original="#000000"></path><path d="M225 445c-32.5 0-58.9-21.4-58.9-47.7 0-2.8 2.2-5 5-5s5 2.2 5 5c0 20.8 21.9 37.7 48.9 37.7s48.9-16.9 48.9-37.7c0-2.8 2.2-5 5-5s5 2.2 5 5c0 26.3-26.4 47.7-58.9 47.7zM225 202.1c-29.4 0-53.2-24.3-53.2-54.1s23.9-54 53.2-54 53.2 24.3 53.2 54.1-23.8 54-53.2 54zm0-98.1c-23.8 0-43.2 19.8-43.2 44.1s19.4 44.1 43.2 44.1 43.2-19.8 43.2-44.1S248.8 104 225 104z" fill="#fcf8f8" data-original="#000000"></path><path d="M244 247.1h-38c-2.8 0-5-2.2-5-5v-16.6c-4.7-1.5-9.4-3.4-13.8-5.7l-11.8 11.8c-1.9 2-5.1 2-7.1 0l-26.8-26.8c-1.9-1.9-1.9-5.1 0-7.1l11.8-11.8c-2.3-4.4-4.3-9-5.7-13.8H131c-2.8 0-5-2.2-5-5v-38c0-2.8 2.2-5 5-5h16.6c1.5-4.7 3.4-9.4 5.7-13.8l-11.8-11.8c-.9-.9-1.5-2.2-1.5-3.5s.5-2.6 1.5-3.5l26.8-26.8c.9-.9 2.2-1.5 3.5-1.5s2.6.5 3.5 1.5l11.8 11.8c4.4-2.3 9-4.3 13.8-5.7V54.1c0-2.8 2.2-5 5-5h38c2.8 0 5 2.2 5 5v16.6c4.7 1.5 9.4 3.4 13.8 5.7l11.8-11.8c.9-.9 2.2-1.5 3.5-1.5s2.6.5 3.5 1.5l26.8 26.8c.9.9 1.5 2.2 1.5 3.5s-.5 2.6-1.5 3.5l-11.8 11.8c2.3 4.4 4.3 9 5.7 13.8H319c2.8 0 5 2.2 5 5v38c0 2.8-2.2 5-5 5h-16.6c-1.5 4.7-3.4 9.4-5.7 13.8l11.8 11.8c.9.9 1.5 2.2 1.5 3.5s-.5 2.6-1.5 3.5l-26.8 26.8c-2 2-5.1 2-7.1 0l-11.8-11.8c-4.4 2.3-9 4.3-13.8 5.7v16.6c0 2.9-2.2 5.2-5 5.2zm-33-10h28v-15.4c0-2.3 1.5-4.3 3.8-4.8 6.4-1.6 12.6-4.2 18.3-7.6 2-1.2 4.5-.9 6.1.8l10.9 10.9 19.8-19.8-10.9-10.9c-1.6-1.6-1.9-4.1-.8-6.1 3.4-5.8 6-11.9 7.6-18.3.6-2.2 2.6-3.8 4.8-3.8H314v-28h-15.4c-2.3 0-4.3-1.5-4.8-3.8-1.6-6.4-4.2-12.6-7.6-18.3-1.2-2-.9-4.5.8-6.1L297.8 95 278 75.2l-10.9 10.9c-1.6 1.6-4.1 1.9-6.1.8-5.8-3.4-11.9-6-18.3-7.6-2.2-.6-3.8-2.6-3.8-4.8V59.1h-28v15.4c0 2.3-1.5 4.3-3.8 4.8-6.4 1.7-12.6 4.2-18.3 7.6-2 1.2-4.5.8-6.1-.8L172 75.2 152.2 95l10.9 10.9c1.6 1.6 1.9 4.1.8 6.1-3.4 5.8-6 11.9-7.6 18.3-.6 2.2-2.6 3.8-4.8 3.8H136v28h15.4c2.3 0 4.3 1.5 4.8 3.8 1.6 6.4 4.2 12.6 7.6 18.3 1.2 2 .9 4.5-.8 6.1l-10.9 10.9 19.8 19.8 10.9-10.9c1.6-1.6 4.1-1.9 6.1-.8 5.8 3.4 11.9 6 18.3 7.6 2.2.6 3.8 2.6 3.8 4.8zM60.5 153.1H37.1c-2.8 0-5-2.2-5-5s2.2-5 5-5h23.4c2.8 0 5 2.2 5 5s-2.2 5-5 5zM66.3 114.8c-.8 0-1.6-.2-2.3-.6l-21.6-11.4c-2.4-1.3-3.4-4.3-2.1-6.8 1.3-2.4 4.3-3.4 6.8-2.1l21.6 11.4c2.4 1.3 3.4 4.3 2.1 6.8-1 1.7-2.7 2.7-4.5 2.7zM44.7 202.7c-1.8 0-3.5-1-4.4-2.7-1.3-2.4-.3-5.5 2.1-6.8L64 181.9c2.4-1.3 5.5-.3 6.8 2.1s.3 5.5-2.1 6.8L47 202.1c-.7.4-1.5.6-2.3.6zM412.9 153.1h-23.4c-2.8 0-5-2.2-5-5s2.2-5 5-5h23.4c2.8 0 5 2.2 5 5s-2.3 5-5 5zM383.7 114.8c-1.8 0-3.5-1-4.4-2.7-1.3-2.4-.3-5.5 2.1-6.8L403 94c2.4-1.3 5.5-.3 6.8 2.1s.3 5.5-2.1 6.8L386 114.2c-.7.4-1.5.6-2.3.6zM405.3 202.7c-.8 0-1.6-.2-2.3-.6l-21.6-11.4c-2.5-1.3-3.4-4.3-2.1-6.8 1.3-2.4 4.3-3.4 6.8-2.1l21.6 11.4c2.5 1.3 3.4 4.3 2.1 6.8-.9 1.7-2.7 2.7-4.5 2.7z" fill="#fcf8f8" data-original="#000000"></path><path d="M225 164.9c-13.2 0-24-10.8-24-24s10.8-24 24-24 24 10.8 24 24-10.8 24-24 24zm0-38c-7.7 0-14 6.3-14 14s6.3 14 14 14 14-6.3 14-14-6.3-14-14-14z" fill="#fcf8f8" data-original="#000000"></path><path d="M190.8 187.6c-.6 0-1.3-.1-1.9-.4-2.5-1.1-3.7-4-2.6-6.6 6.6-15.6 21.9-25.7 38.8-25.7s32.2 10.1 38.8 25.7c1.1 2.5-.1 5.5-2.6 6.6s-5.5-.1-6.6-2.6c-5-11.9-16.7-19.6-29.6-19.6s-24.6 7.7-29.6 19.6c-.9 1.9-2.8 3-4.7 3z" fill="#fcf8f8" data-original="#000000"></path></g></svg>